<svg xmlns="http://www.w3.org/2000/svg" width="36" height="36"><path d="M25.2 20.4a6.8 6.8 0 0 0 .4-2.4 6.9 6.9 0 0 0-6.8-6.9 6.8 6.8 0 0 0-2.4.5l1.6 1.6a4.8 4.8 0 0 1 .7 0 4.9 4.9 0 0 1 5 4.8 4.8 4.8 0 0 1-.1.7Z" class="clr-i-outline clr-i-outline-path-1"/><path d="M34.3 17.5a18 18 0 0 0-15.8-10 16.8 16.8 0 0 0-5.3.9l1.6 1.6a14.8 14.8 0 0 1 3.7-.5A16 16 0 0 1 32.3 18a17.8 17.8 0 0 1-4.4 5l1.4 1.5a20 20 0 0 0 5-6l.3-.5Z" class="clr-i-outline clr-i-outline-path-2"/><path d="m4.9 5.8 4.4 4.4a19.5 19.5 0 0 0-6.7 7.3l-.2.5.2.5a18 18 0 0 0 15.9 10 17 17 0 0 0 7.3-1.7l5 5 1.8-1.5-26-26Zm9.7 9.7 6.7 6.7a4.8 4.8 0 0 1-2.5.7 4.9 4.9 0 0 1-4.9-4.9 4.8 4.8 0 0 1 .7-2.5Zm-1.4-1.4a6.8 6.8 0 0 0 9.5 9.5l1.6 1.6a15 15 0 0 1-5.8 1.2A16 16 0 0 1 4.7 18a17.3 17.3 0 0 1 6-6.3Z" class="clr-i-outline clr-i-outline-path-3"/><path fill="none" d="M0 0h36v36H0z"/></svg>