<svg xmlns="http://www.w3.org/2000/svg" viewBox="0 0 512 512"><path d="M497.6 244.7C433.7 148 347.9 94.7 256 94.7S78.3 148 14.4 244.7a20.4 20.4 0 0 0 0 22.5c63.9 96.7 149.7 150 241.6 150s177.7-53.3 241.6-150a20.4 20.4 0 0 0 0-22.5zM256 376.4c-74.2 0-144.8-42.6-199.9-120.4 55-77.8 125.6-120.4 199.9-120.4 74.2 0 144.8 42.6 199.9 120.4-55.1 77.8-125.6 120.4-199.9 120.4z"/><path d="M256 148.5a107.6 107.6 0 0 0 0 215 107.6 107.6 0 0 0 0-215zm0 175.5a67.5 67.5 0 0 1-66.8-68c0-37.5 30-68 66.8-68a67.5 67.5 0 0 1 66.8 68c0 37.5-30 68-66.8 68z"/></svg>